<?xml version="1.0" standalone="no"?>
<!DOCTYPE svg PUBLIC "-//W3C//DTD SVG 20010904//EN"
 "http://www.w3.org/TR/2001/REC-SVG-20010904/DTD/svg10.dtd">
<svg version="1.0" xmlns="http://www.w3.org/2000/svg"
 width="16.000000pt" height="16.000000pt" viewBox="0 0 16.000000 16.000000"
 preserveAspectRatio="xMidYMid meet">
<metadata>
Created by potrace 1.11, written by Peter Selinger 2001-2013
</metadata>
<g transform="translate(0.000000,16.000000) scale(0.002286,-0.002286)"
fill="#000000" stroke="none">
<path d="M1170 5825 l-465 -465 930 -930 930 -930 -930 -930 -930 -930 468
-467 467 -468 930 930 930 930 930 -930 930 -930 467 468 468 467 -930 930
-930 930 930 930 930 930 -468 467 -467 468 -930 -930 -930 -930 -928 928
c-510 510 -929 927 -932 927 -3 0 -214 -209 -470 -465z m1250 -920 l775 -775
-163 -162 -162 -163 -777 777 -778 778 160 160 c88 88 162 160 165 160 3 0
354 -349 780 -775z m3105 615 l160 -160 -778 -778 -777 -777 -162 163 -163
162 775 775 c426 426 777 775 780 775 3 0 77 -72 165 -160z m-1860 -1860 l160
-160 -163 -163 -162 -162 -162 162 -163 163 160 160 c88 88 162 160 165 160 3
0 77 -72 165 -160z m-630 -630 l160 -160 -778 -778 -777 -777 -162 163 -163
162 775 775 c426 426 777 775 780 775 3 0 77 -72 165 -160z m1875 -615 l775
-775 -163 -162 -162 -163 -777 777 -778 778 160 160 c88 88 162 160 165 160 3
0 354 -349 780 -775z"/>
</g>
</svg>
